# xmcd CD database file
#
# Track frame offsets:
#	150
#	20607
#	40762
#	55739
#	76683
#	96467
#	112225
#	143574
#	163861
#	190844
#	210926
#	229043
#	256760
#
# Disc length: 3501 seconds
#
# Revision: 0
# Processed by: cddbd v1.4PL0 Copyright (c) Steve Scherf et al.
# Submitted via: CDex 1.50
#
DISCID=a40dab0d
DTITLE=Varios Artists - BBC - Nobody but You - Jam 2
DYEAR=1900
DGENRE=Blues
TTITLE0=Luther Allison - Nobody but you
TTITLE1=Buddy Guy - She's out there somewere
TTITLE2=B.B.King - Summer in the sity
TTITLE3=Otis Rush - Litte Red Rooster
TTITLE4=Junior Wells - Don't you lie to me
TTITLE5=Jimmy Rushing - Did you ever
TTITLE6=Albert Collins - Light are on but nobody's home
TTITLE7=Billy Boy Arnold - Whiskey, Beer and Reffer
TTITLE8=Luther Allison - Just memories
TTITLE9=Otis Rush - You got me running
TTITLE10=John Lee Hooker - Don't look back
TTITLE11=Peter Green - You won't see me anymore
TTITLE12=Reklama
EXTD=
EXTT0=
EXTT1=
EXTT2=
EXTT3=
EXTT4=
EXTT5=
EXTT6=
EXTT7=
EXTT8=
EXTT9=
EXTT10=
EXTT11=
EXTT12=
PLAYORDER=
